<svg width="24" height="26" viewBox="0 0 24 26" fill="none" xmlns="http://www.w3.org/2000/svg">
<path d="M1.2496 6.23367C2.39663 5.78306 3.7289 5.11096 5.91445 5.11096C7.67587 5.11096 16.9747 5.11096 18.0193 5.11096C19.0639 5.11096 21.6447 5.45534 22.7506 6.23367" stroke="#848484" stroke-width="1.5" stroke-linecap="round"/>
<path d="M3.78418 9.14478L5.30511 22.6886C5.41874 23.7004 6.27441 24.4654 7.29262 24.4654H17.7517C18.8271 24.4654 19.7101 23.6149 19.7503 22.5402L20.2517 9.14478" stroke="#848484" stroke-width="1.5" stroke-linecap="round"/>
<path d="M8.2085 5.11096V3.93262C8.2085 2.27576 9.55164 0.932617 11.2085 0.932617H13.5652C15.222 0.932617 16.5652 2.27576 16.5652 3.93262V5.11096" stroke="#848484" stroke-width="1.5" stroke-linecap="square"/>
<line x1="8.85596" y1="12.7983" x2="15.344" y2="12.7983" stroke="#848484" stroke-width="1.5" stroke-linecap="round"/>
<line x1="10.085" y1="18.2057" x2="14.1151" y2="18.2057" stroke="#848484" stroke-width="1.5" stroke-linecap="round"/>
</svg>
