<svg width="20" height="20" viewBox="0 0 20 20" fill="none" xmlns="http://www.w3.org/2000/svg">
<path d="M17.2494 5.80681L19.1617 5.82723" stroke="white" stroke-width="1.66667" stroke-linecap="round" stroke-linejoin="round"/>
<path d="M1.9389 18.2882L3.2091 16.5267" stroke="white" stroke-width="1.66667" stroke-linecap="round" stroke-linejoin="round"/>
<path d="M4.38909 17.5041C4.59151 17.6724 4.82515 17.7991 5.07662 17.8768C5.32809 17.9546 5.59245 17.982 5.85452 17.9574C6.1166 17.9328 6.37124 17.8567 6.60385 17.7335C6.83646 17.6103 7.04246 17.4424 7.21003 17.2394L8.93924 15.152L3.49395 10.6411L1.76475 12.7284C1.59647 12.9308 1.4698 13.1645 1.39202 13.4159C1.31423 13.6674 1.28684 13.9318 1.31144 14.1938C1.33603 14.4559 1.41212 14.7106 1.53533 14.9432C1.65855 15.1758 1.82647 15.3818 2.02947 15.5494L4.38909 17.5041Z" stroke="white" stroke-width="1.66667" stroke-linecap="round" stroke-linejoin="round"/>
<path d="M4.85578 11.7689L6.73535 9.49999" stroke="white" stroke-width="1.66667" stroke-linecap="round" stroke-linejoin="round"/>
<path d="M7.57795 14.0243L9.45752 11.7554" stroke="white" stroke-width="1.66667" stroke-linecap="round" stroke-linejoin="round"/>
<path d="M12.5354 2.27124V9.34231L15.246 9.34231C15.5092 9.34276 15.7699 9.29125 16.0132 9.19073C16.2565 9.09021 16.4775 8.94265 16.6637 8.75652C16.8498 8.57039 16.9974 8.34935 17.0979 8.10607C17.1984 7.86279 17.2499 7.60207 17.2494 7.33884L17.2494 4.27471C17.2499 4.01148 17.1984 3.75075 17.0979 3.50747C16.9974 3.26419 16.8498 3.04315 16.6637 2.85702C16.4775 2.67089 16.2565 2.52334 16.0132 2.42281C15.7699 2.32229 15.5092 2.27078 15.246 2.27124L12.5354 2.27124Z" stroke="white" stroke-width="1.66667" stroke-linecap="round" stroke-linejoin="round"/>
<path d="M8 6L6 5.5" stroke="white" stroke-width="1.5" stroke-linecap="round"/>
<path d="M10 4.5L9 2.5" stroke="white" stroke-width="1.5" stroke-linecap="round"/>
</svg>
