<svg width="40" height="40" viewBox="0 0 40 40" fill="none" xmlns="http://www.w3.org/2000/svg">
<path d="M17.0869 9.33905C18.8284 8.09051 21.1716 8.09051 22.9131 9.33905L30.3291 14.6555C32.1627 15.9702 33.25 18.0887 33.25 20.3449V27.7502C33.2499 30.5115 31.0114 32.7502 28.25 32.7502H11.75C8.98863 32.7502 6.75009 30.5115 6.75 27.7502V20.3449C6.75 18.0887 7.83733 15.9702 9.6709 14.6555L17.0869 9.33905ZM20 20.0002C17.7909 20.0002 16 21.791 16 24.0002C16.0001 26.2092 17.7909 28.0002 20 28.0002C22.2091 28.0002 23.9999 26.2092 24 24.0002C24 21.791 22.2091 20.0002 20 20.0002Z" fill="#848484"/>
</svg>
