<svg width="24" height="24" viewBox="0 0 24 24" fill="none" xmlns="http://www.w3.org/2000/svg">
<path d="M19.6747 14.4926V18.1147C19.6747 18.9399 19.0057 19.6089 18.1805 19.6089H5.88846C5.06326 19.6089 4.3943 18.9399 4.3943 18.1147V5.82267C4.3943 4.99746 5.06326 4.3285 5.88846 4.3285H10.2576C10.3326 4.3285 10.4045 4.29872 10.4575 4.24571C10.5105 4.19269 10.5403 4.12079 10.5403 4.04582V2.70114C10.5403 2.62617 10.5105 2.55427 10.4575 2.50125C10.4045 2.44824 10.3326 2.41846 10.2576 2.41846H5.47258C3.82217 2.41846 2.48425 3.75638 2.48425 5.40678V18.5306C2.48425 20.181 3.82217 21.5189 5.47258 21.5189H18.5964C20.2468 21.5189 21.5847 20.181 21.5847 18.5306V14.4926C21.5847 14.4555 21.5774 14.4187 21.5632 14.3844C21.549 14.3501 21.5282 14.319 21.5019 14.2927C21.4757 14.2665 21.4445 14.2457 21.4102 14.2315C21.3759 14.2172 21.3391 14.2099 21.302 14.2099H19.9574C19.8017 14.2099 19.6747 14.337 19.6747 14.4926Z" fill="white"/>
<path d="M11.5035 11.474L12.4547 12.4252C12.4808 12.4515 12.5119 12.4724 12.5462 12.4867C12.5805 12.5009 12.6172 12.5083 12.6543 12.5083C12.6914 12.5083 12.7281 12.5009 12.7624 12.4867C12.7967 12.4724 12.8278 12.4515 12.8539 12.4252L19.0816 6.19748C19.2592 6.01985 19.5639 6.14591 19.5639 6.39708V9.13513C19.5639 9.21011 19.5937 9.28201 19.6467 9.33502C19.6997 9.38804 19.7716 9.41782 19.8466 9.41782H21.1913C21.2662 9.41782 21.3381 9.38804 21.3911 9.33502C21.4442 9.28201 21.4739 9.21011 21.4739 9.13513V2.70114C21.4739 2.62617 21.4442 2.55427 21.3911 2.50125C21.3381 2.44824 21.2662 2.41846 21.1913 2.41846H14.6665C14.5916 2.41846 14.5197 2.44824 14.4666 2.50125C14.4136 2.55427 14.3838 2.62617 14.3838 2.70114V4.04582C14.3838 4.12079 14.4136 4.19269 14.4666 4.24571C14.5197 4.29872 14.5916 4.3285 14.6665 4.3285H17.566C17.8181 4.3285 17.9442 4.63316 17.7656 4.81079L11.5035 11.0738C11.4507 11.1271 11.4211 11.199 11.4211 11.2739C11.4211 11.3489 11.4507 11.4208 11.5035 11.474Z" fill="white"/>
</svg>
