<svg width="24" height="25" viewBox="0 0 24 25" fill="none" xmlns="http://www.w3.org/2000/svg">
<path d="M12 9.16455C10.1638 9.16455 8.66534 10.663 8.66534 12.4992C8.66534 14.3354 10.1638 15.8339 12 15.8339C13.8362 15.8339 15.3347 14.3354 15.3347 12.4992C15.3347 10.663 13.8362 9.16455 12 9.16455Z" fill="white"/>
<path d="M22.0013 12.5003C22.0013 11.1194 22.0138 9.751 21.9362 8.37259C21.8587 6.77154 21.4934 5.3506 20.3227 4.17984C19.1494 3.00656 17.731 2.64383 16.1299 2.56628C14.749 2.48872 13.3806 2.50123 12.0022 2.50123C10.6213 2.50123 9.25289 2.48872 7.87448 2.56628C6.27343 2.64383 4.8525 3.00907 3.68173 4.17984C2.50846 5.35311 2.14572 6.77154 2.06817 8.37259C1.99062 9.7535 2.00312 11.1219 2.00312 12.5003C2.00312 13.8787 1.99062 15.2496 2.06817 16.628C2.14572 18.2291 2.51096 19.65 3.68173 20.8208C4.855 21.994 6.27343 22.3568 7.87448 22.4343C9.25539 22.5119 10.6238 22.4994 12.0022 22.4994C13.3831 22.4994 14.7515 22.5119 16.1299 22.4343C17.731 22.3568 19.1519 21.9915 20.3227 20.8208C21.4959 19.6475 21.8587 18.2291 21.9362 16.628C22.0163 15.2496 22.0013 13.8812 22.0013 12.5003ZM11.9997 17.6312C9.16033 17.6312 6.86882 15.3397 6.86882 12.5003C6.86882 9.66094 9.16033 7.36943 11.9997 7.36943C14.8391 7.36943 17.1306 9.66094 17.1306 12.5003C17.1306 15.3397 14.8391 17.6312 11.9997 17.6312ZM17.3407 8.35758C16.6778 8.35758 16.1424 7.82223 16.1424 7.15929C16.1424 6.49636 16.6778 5.96101 17.3407 5.96101C18.0036 5.96101 18.539 6.49636 18.539 7.15929C18.5365 7.82473 18.0036 8.35758 17.3407 8.35758Z" fill="white"/>
</svg>
