<svg width="48" height="48" viewBox="0 0 48 48" fill="none" xmlns="http://www.w3.org/2000/svg">
<path d="M23.94 44C34.9857 44 43.94 35.0457 43.94 24C43.94 12.9543 34.9857 4 23.94 4C12.8943 4 3.94 12.9543 3.94 24C3.94 35.0457 12.8943 44 23.94 44Z" fill="white"/>
<path d="M21.44 30.06V17.94C21.44 16.98 21.04 16.6 20.02 16.6H17.42C16.4 16.6 16 16.98 16 17.94V30.06C16 31.02 16.4 31.4 17.42 31.4H20C21.04 31.4 21.44 31.02 21.44 30.06Z" fill="#060606"/>
<path d="M32 30.06V17.94C32 16.98 31.6 16.6 30.58 16.6H28C26.98 16.6 26.58 16.98 26.58 17.94V30.06C26.58 31.02 26.98 31.4 28 31.4H30.58C31.6 31.4 32 31.02 32 30.06Z" fill="#060606"/>
</svg>
