<svg width="24" height="24" viewBox="0 0 24 24" fill="none" xmlns="http://www.w3.org/2000/svg">
<path opacity="0.4" d="M21.75 17.9799C21.75 17.9599 21.74 17.9399 21.74 17.9199C21.73 17.8399 21.72 17.7599 21.69 17.6899C21.65 17.5999 21.6 17.5299 21.54 17.4599C21.54 17.4599 21.54 17.4499 21.53 17.4499C21.46 17.3799 21.38 17.3299 21.29 17.2899C21.2 17.2499 21.1 17.2299 21 17.2299L16.33 17.2499C16.33 17.2499 16.33 17.2499 16.32 17.2499C15.72 17.2499 15.14 16.9699 14.78 16.4899L13.56 14.9199C13.31 14.5899 12.84 14.5299 12.51 14.7899C12.18 15.0499 12.12 15.5099 12.38 15.8399L13.6 17.4099C14.25 18.2499 15.27 18.7499 16.33 18.7499H16.34L19.19 18.7399L18.48 19.4499C18.19 19.7399 18.19 20.2199 18.48 20.5099C18.63 20.6599 18.82 20.7299 19.01 20.7299C19.2 20.7299 19.39 20.6599 19.54 20.5099L21.54 18.5099C21.61 18.4399 21.66 18.3599 21.7 18.2699C21.73 18.1699 21.75 18.0699 21.75 17.9799Z" fill="white"/>
<path opacity="0.4" d="M8.42001 6.69C7.77001 5.79 6.73 5.26001 5.62 5.26001C5.61 5.26001 5.61001 5.26001 5.60001 5.26001L2.98999 5.27002C2.57999 5.27002 2.23999 5.61002 2.23999 6.02002C2.23999 6.43002 2.57999 6.77002 2.98999 6.77002L5.60001 6.76001H5.60999C6.23999 6.76001 6.83 7.06001 7.19 7.57001L8.26999 9.07001C8.41999 9.27001 8.65 9.38 8.88 9.38C9.03 9.38 9.19001 9.32999 9.32001 9.23999C9.66001 8.99999 9.72999 8.53 9.48999 8.19L8.42001 6.69Z" fill="white"/>
<path d="M21.74 6.07999C21.74 6.05999 21.75 6.04 21.75 6.03C21.75 5.93 21.73 5.82996 21.69 5.73996C21.65 5.64996 21.6 5.56997 21.53 5.49997L19.53 3.49997C19.24 3.20997 18.76 3.20997 18.47 3.49997C18.18 3.78997 18.18 4.26997 18.47 4.55997L19.18 5.26999L16.45 5.25998C16.44 5.25998 16.44 5.25998 16.43 5.25998C15.28 5.25998 14.2 5.82996 13.56 6.79996L7.17001 16.38C6.81001 16.92 6.19999 17.25 5.54999 17.25H5.54001L2.98999 17.24C2.57999 17.24 2.23999 17.57 2.23999 17.99C2.23999 18.4 2.56999 18.74 2.98999 18.74L5.54001 18.75C5.55001 18.75 5.55 18.75 5.56 18.75C6.72 18.75 7.78999 18.18 8.42999 17.21L14.82 7.62998C15.18 7.08998 15.79 6.75998 16.44 6.75998H16.45L21 6.78C21.1 6.78 21.19 6.75994 21.29 6.71994C21.38 6.67994 21.46 6.62997 21.53 6.55997C21.53 6.55997 21.53 6.54996 21.54 6.54996C21.6 6.47996 21.66 6.40998 21.69 6.31998C21.72 6.23998 21.73 6.15999 21.74 6.07999Z" fill="white"/>
</svg>
