<svg width="40" height="40" viewBox="0 0 40 40" fill="none" xmlns="http://www.w3.org/2000/svg">
<path fill-rule="evenodd" clip-rule="evenodd" d="M9.92383 9.78247C9.92383 9.36826 10.2596 9.03247 10.6738 9.03247H21.5816C21.9958 9.03247 22.3316 9.36826 22.3316 9.78247C22.3316 10.1967 21.9958 10.5325 21.5816 10.5325H10.6738C10.2596 10.5325 9.92383 10.1967 9.92383 9.78247Z" fill="#848484"/>
<path fill-rule="evenodd" clip-rule="evenodd" d="M9.92383 19.7887C9.92383 19.3745 10.2596 19.0387 10.6738 19.0387H15.3777C15.7919 19.0387 16.1277 19.3745 16.1277 19.7887C16.1277 20.2029 15.7919 20.5387 15.3777 20.5387H10.6738C10.2596 20.5387 9.92383 20.2029 9.92383 19.7887Z" fill="#848484"/>
<path fill-rule="evenodd" clip-rule="evenodd" d="M9.92383 14.7856C9.92383 14.3714 10.2596 14.0356 10.6738 14.0356H21.5816C21.9958 14.0356 22.3316 14.3714 22.3316 14.7856C22.3316 15.1999 21.9958 15.5356 21.5816 15.5356H10.6738C10.2596 15.5356 9.92383 15.1999 9.92383 14.7856Z" fill="#848484"/>
<path d="M25.3409 29.2098C25.3409 31.4645 23.513 33.2924 21.2583 33.2924C19.0036 33.2924 17.1758 31.4645 17.1758 29.2098C17.1758 26.9551 19.0036 25.1273 21.2583 25.1273C23.513 25.1273 25.3409 26.9551 25.3409 29.2098Z" fill="#848484"/>
<path d="M23.927 22.0575C23.1056 20.4512 23.742 18.4832 25.3483 17.6618L28.9124 15.8395C30.4244 15.0664 32.2769 15.6654 33.05 17.1774C33.8231 18.6894 33.2241 20.5418 31.7121 21.3149L26.4675 23.9965C25.7893 24.3433 24.9583 24.0746 24.6116 23.3964L23.927 22.0575Z" fill="#848484"/>
<path d="M23.5735 20.5388H25.3288V28.5469H23.5735V20.5388Z" fill="#848484"/>
</svg>
