<svg width="40" height="40" viewBox="0 0 40 40" fill="none" xmlns="http://www.w3.org/2000/svg">
<path d="M26.5 9.5C29.8137 9.5 32.5 12.1863 32.5 15.5V24.5C32.5 27.8137 29.8137 30.5 26.5 30.5H13.5C10.1863 30.5 7.5 27.8137 7.5 24.5V15.5C7.5 12.1863 10.1863 9.5 13.5 9.5H26.5ZM15 18.5C13.067 18.5 11.5 20.067 11.5 22C11.5 23.933 13.067 25.5 15 25.5H25C26.933 25.5 28.5 23.933 28.5 22C28.5 20.067 26.933 18.5 25 18.5H15Z" fill="#848484"/>
<circle cx="25" cy="22" r="2.5" fill="white"/>
<circle cx="15" cy="22" r="2.5" fill="white"/>
<path d="M26.4999 9.5C26.8293 9.5 27.1526 9.52704 27.4677 9.57812L26.5057 11.9854C25.8983 13.504 24.4275 14.5 22.7919 14.5H17.2079C15.5724 14.4999 14.1014 13.5039 13.494 11.9854L12.5311 9.57812C12.8465 9.52692 13.1701 9.50001 13.4999 9.5H26.4999Z" fill="white"/>
<line x1="17.3853" y1="27.9845" x2="22.6148" y2="27.9845" stroke="white" stroke-width="1.5" stroke-linecap="round"/>
</svg>
