<svg width="24" height="24" viewBox="0 0 24 24" fill="none" xmlns="http://www.w3.org/2000/svg">
<path d="M3.91 17.1799C3.72 17.1799 3.53 17.1099 3.38 16.9599C2.01 15.5799 1.25 13.7599 1.25 11.8299C1.25 7.81994 4.5 4.55992 8.5 4.55992L14.57 4.57994L13.48 3.5399C13.18 3.2499 13.17 2.77991 13.46 2.47991C13.75 2.17991 14.22 2.16995 14.52 2.45995L16.96 4.79991C17.18 5.00991 17.25 5.33992 17.14 5.61992C17.03 5.89992 16.75 6.08995 16.44 6.08995L8.48999 6.06993C5.31999 6.06993 2.73999 8.65995 2.73999 11.84C2.73999 13.37 3.33999 14.8199 4.42999 15.9099C4.71999 16.1999 4.71999 16.6799 4.42999 16.9699C4.28999 17.1099 4.1 17.1799 3.91 17.1799Z" fill="white"/>
<path d="M10 21.75C9.81003 21.75 9.63004 21.6799 9.48004 21.5399L7.04004 19.2C6.82004 18.99 6.75002 18.66 6.86002 18.38C6.98002 18.1 7.26003 17.9499 7.56003 17.9099L15.51 17.93C18.68 17.93 21.26 15.3399 21.26 12.1599C21.26 10.6299 20.66 9.18 19.57 8.09C19.28 7.8 19.28 7.32 19.57 7.03C19.86 6.74 20.34 6.74 20.63 7.03C22 8.41 22.76 10.2299 22.76 12.1599C22.76 16.1699 19.51 19.43 15.51 19.43L9.44003 19.4099L10.53 20.45C10.83 20.74 10.84 21.21 10.55 21.51C10.39 21.67 10.2 21.75 10 21.75Z" fill="white"/>
</svg>
