<svg width="24" height="24" viewBox="0 0 24 24" fill="none" xmlns="http://www.w3.org/2000/svg">
<path opacity="0.4" d="M21.75 6.02011C21.75 6.04011 21.74 6.06011 21.74 6.08011C21.73 6.16011 21.72 6.24009 21.69 6.31009C21.65 6.40009 21.6 6.47007 21.54 6.54007C21.54 6.54007 21.54 6.55008 21.53 6.55008C21.46 6.62008 21.38 6.67011 21.29 6.71011C21.2 6.75011 21.1 6.77011 21 6.77011L16.33 6.75009C16.33 6.75009 16.33 6.75009 16.32 6.75009C15.72 6.75009 15.14 7.0301 14.78 7.5101L13.56 9.08011C13.31 9.41011 12.84 9.47011 12.51 9.21011C12.18 8.95011 12.12 8.49006 12.38 8.16006L13.6 6.59012C14.25 5.75012 15.27 5.25009 16.33 5.25009H16.34L19.19 5.2601L18.48 4.55008C18.19 4.26008 18.19 3.78008 18.48 3.49008C18.63 3.34008 18.82 3.27011 19.01 3.27011C19.2 3.27011 19.39 3.34008 19.54 3.49008L21.54 5.49008C21.61 5.56008 21.66 5.64007 21.7 5.73007C21.73 5.83007 21.75 5.93011 21.75 6.02011Z" fill="white"/>
<path opacity="0.4" d="M8.42001 17.31C7.77001 18.21 6.73 18.74 5.62 18.74C5.61 18.74 5.61001 18.74 5.60001 18.74L2.98999 18.73C2.57999 18.73 2.23999 18.39 2.23999 17.98C2.23999 17.57 2.57999 17.23 2.98999 17.23L5.60001 17.24H5.60999C6.23999 17.24 6.83 16.94 7.19 16.43L8.26999 14.93C8.41999 14.73 8.65 14.62 8.88 14.62C9.03 14.62 9.19001 14.67 9.32001 14.76C9.66001 15 9.72999 15.47 9.48999 15.81L8.42001 17.31Z" fill="white"/>
<path d="M21.74 17.92C21.74 17.94 21.75 17.96 21.75 17.97C21.75 18.07 21.73 18.17 21.69 18.26C21.65 18.35 21.6 18.43 21.53 18.5L19.53 20.5C19.24 20.79 18.76 20.79 18.47 20.5C18.18 20.21 18.18 19.73 18.47 19.44L19.18 18.73L16.45 18.74C16.44 18.74 16.44 18.74 16.43 18.74C15.28 18.74 14.2 18.17 13.56 17.2L7.17001 7.62002C6.81001 7.08002 6.19999 6.75003 5.54999 6.75003H5.54001L2.98999 6.76004C2.57999 6.76004 2.23999 6.43004 2.23999 6.01004C2.23999 5.60004 2.56999 5.26004 2.98999 5.26004L5.54001 5.25003C5.55001 5.25003 5.55 5.25003 5.56 5.25003C6.72 5.25003 7.78999 5.82001 8.42999 6.79001L14.82 16.37C15.18 16.91 15.79 17.24 16.44 17.24H16.45L21 17.22C21.1 17.22 21.19 17.2401 21.29 17.2801C21.38 17.3201 21.46 17.37 21.53 17.44C21.53 17.44 21.53 17.45 21.54 17.45C21.6 17.52 21.66 17.59 21.69 17.68C21.72 17.76 21.73 17.84 21.74 17.92Z" fill="white"/>
</svg>
