<svg width="24" height="25" viewBox="0 0 24 25" fill="none" xmlns="http://www.w3.org/2000/svg">
<path d="M14.5332 3.77344C15.3918 3.31422 16.378 3.15128 17.3389 3.30859C18.2997 3.4659 19.1823 3.93459 19.8496 4.64355L20.0391 4.8457L20.3105 4.79199C20.9633 4.66288 21.5998 4.46884 22.2139 4.21875C21.8668 4.69095 21.4277 5.09423 20.917 5.40039L21.2314 6.32617C21.6698 6.27525 22.1034 6.19371 22.5303 6.08691C22.1384 6.49428 21.7108 6.86766 21.251 7.2002L21.0332 7.3584L21.0449 7.62695C21.054 7.83021 21.0586 8.03863 21.0586 8.24219C21.0586 14.532 16.2706 21.751 7.5498 21.751C5.64469 21.752 3.76931 21.3479 2.04395 20.5762C4.06367 20.4098 5.99792 19.6552 7.60156 18.3955L8.70215 17.5303L7.30273 17.502C6.37962 17.4834 5.48481 17.1772 4.74414 16.626C4.2202 16.236 3.79429 15.7357 3.48828 15.166C4.01307 15.1793 4.53842 15.1169 5.04785 14.9775L5.01465 14.0059C4.01306 13.8042 3.11185 13.2614 2.46484 12.4707C1.97525 11.8723 1.65341 11.1594 1.52637 10.4053C2.05656 10.5947 2.61436 10.7027 3.18066 10.7207L4.92578 10.7754L3.47461 9.80469C2.53895 9.17882 1.87636 8.22061 1.62207 7.12402C1.42295 6.26521 1.48607 5.37223 1.79395 4.55762C2.97976 5.86438 4.39566 6.9456 5.97363 7.74512C7.78408 8.66239 9.76791 9.18832 11.7949 9.29004L12.4561 9.32324L12.3066 8.67871C12.0873 7.73009 12.1863 6.73518 12.5889 5.84863C12.9914 4.96214 13.6747 4.23266 14.5332 3.77344Z" fill="white" stroke="white"/>
</svg>
